<svg xmlns="http://www.w3.org/2000/svg" width="490.541" height="401.911" viewBox="0 0 490.541 401.911">
  <g id="Group_1" data-name="Group 1" transform="matrix(0.985, 0.174, -0.174, 0.985, -448.068, -389.129)">
    <path id="Path_14" data-name="Path 14" d="M626.3,437.8c34.326,196.241,74.571,205.353,74.571,205.353s66.062,24.3,213.373-120.734" transform="translate(-4 -7)" fill="none" stroke="#091c4a" stroke-width="9"/>
    <path id="Path_3" data-name="Path 3" d="M637.541,471c186.19-57.85,259.061,0,259.061,0s-39.485,12.453-58.746,61.89,25.681-41.278-201.92-61.89" transform="translate(-7.065 322.049) rotate(-21)" fill="#b6cde3" stroke="#091c4a" stroke-width="15"/>
    <path id="Path_4" data-name="Path 4" d="M774.27,449.1c-21.483,35.312,0,55.536,0,55.536l40.5-73.709Z" transform="matrix(0.995, 0.105, -0.105, 0.995, 168.779, -70.701)" fill="#00f2f2" stroke="#091c4a" stroke-width="10"/>
    <path id="Path_5" data-name="Path 5" d="M255.62,28.572C74.035-30.575.758,37.064.758,37.064s38.5,12.751,56.1,67.881S32.722,59.229,257.2,28.52" transform="matrix(0.53, 0.848, -0.848, 0.53, 633.813, 297.518)" fill="#b6cde3" stroke="#091c4a" stroke-width="15"/>
    <path id="Path_6" data-name="Path 6" d="M806.225,448.5c22.016,34.132,0,53.68,0,53.68l-41.5-71.246Z" transform="translate(275.126 -416.291) rotate(34)" fill="#00f2f2" stroke="#091c4a" stroke-width="10"/>
  </g>
</svg>
